<svg xmlns="http://www.w3.org/2000/svg" width="98" height="98" viewBox="0 0 98 98" >
  <path d="M87.9637 49.8251L97.4068 50.6639L96.9049 56.3007L95.7993 56.2024L96.1915 51.7982L87.854 51.0576L87.9637 49.8251Z" fill="#CD4841"/>
  <path d="M90.4024 55.4502C90.9756 55.6077 91.4217 55.9064 91.741 56.3464C92.0719 56.7895 92.2696 57.3282 92.334 57.9623C92.4069 58.6114 92.3387 59.316 92.1293 60.0762C92.0069 60.5206 91.8446 60.973 91.6424 61.4332C91.4401 61.8934 91.2173 62.2914 90.9739 62.6271L91.7459 62.8392C92.5179 63.0513 93.1948 62.992 93.7766 62.6612C94.3585 62.3304 94.7605 61.7615 94.9827 60.9545C95.118 60.4633 95.1581 59.9522 95.103 59.4213C95.0564 58.9053 94.9284 58.3418 94.7192 57.7307L95.6871 57.506C95.9322 58.215 96.0753 58.8833 96.1163 59.511C96.1691 60.1419 96.1133 60.7556 95.949 61.3521C95.6398 62.4749 95.0734 63.2753 94.2496 63.7535C93.4259 64.2317 92.4467 64.3149 91.3121 64.0032L87.0835 62.8414C86.9197 62.7964 86.7872 62.7978 86.686 62.8454C86.5965 62.8963 86.525 62.9962 86.4714 63.145L85.5239 62.8847C85.5476 62.7528 85.5665 62.6385 85.5806 62.5417C85.5947 62.445 85.614 62.3748 85.6386 62.3312C85.7308 62.042 85.8856 61.8455 86.1029 61.7417C86.3202 61.6379 86.5299 61.6074 86.732 61.6504L87.4036 61.816C86.99 61.262 86.7271 60.6174 86.615 59.8821C86.5147 59.15 86.5579 58.4448 86.7447 57.7665C86.9057 57.1817 87.1751 56.6833 87.5528 56.2713C87.939 55.8742 88.3797 55.599 88.8749 55.4457C89.3785 55.3073 89.8877 55.3088 90.4024 55.4502ZM88.0144 61.38C88.1427 61.5536 88.2733 61.6964 88.406 61.8084C88.5388 61.9203 88.6636 61.9923 88.7806 62.0245L90.1141 62.3909C90.3757 62.035 90.607 61.6519 90.808 61.2417C91.0059 60.8432 91.1644 60.4275 91.2836 59.9948C91.5187 59.141 91.5391 58.4044 91.3448 57.7849C91.1505 57.1654 90.7609 56.7753 90.1761 56.6146C89.8368 56.5214 89.491 56.5208 89.1386 56.6126C88.7978 56.7077 88.4813 56.8975 88.1891 57.1821C87.9085 57.4698 87.7054 57.8418 87.5798 58.2979C87.422 58.871 87.3865 59.4336 87.4735 59.9859C87.5573 60.5499 87.7376 61.0146 88.0144 61.38Z" fill="#CD4841"/>
  <path d="M85.9717 62.0914L86.9736 62.6101C86.8227 62.9008 86.764 63.1982 86.7975 63.5024C86.8417 63.8122 87.0077 64.1508 87.2953 64.5183C87.5774 64.8966 88.019 65.3096 88.6203 65.7575C89.2323 66.211 90.0416 66.7188 91.0483 67.281L93.341 68.591L90.508 74.05L82.0892 69.6912L82.6591 68.593L90.0923 72.4414L91.8524 69.0497L90.4149 68.2644C89.2738 67.619 88.3464 67.0227 87.6326 66.4756C86.9296 65.9341 86.4189 65.4169 86.1006 64.9243C85.7767 64.4424 85.6127 63.9682 85.6088 63.5017C85.6049 63.0352 85.7259 62.5651 85.9717 62.0914Z" fill="#CD4841"/>
  <path d="M78.9746 73.4976C79.4097 72.9759 79.9116 72.5729 80.4804 72.2887C81.0584 72.0122 81.656 71.8544 82.2729 71.8154C82.8992 71.7841 83.5185 71.8654 84.1309 72.0593C84.7354 72.2624 85.2988 72.5812 85.8211 73.0157C86.5018 73.5821 86.9984 74.2556 87.3109 75.0363C87.6156 75.8263 87.7066 76.6358 87.5839 77.4648C87.4706 78.3016 87.1226 79.0693 86.5399 79.768C85.9416 80.4854 85.2486 80.966 84.4607 81.21C83.665 81.4633 82.8546 81.507 82.0293 81.3412C81.2134 81.1832 80.4697 80.8248 79.7983 80.2662C79.7237 80.2041 79.6491 80.1421 79.5745 80.08C79.5092 80.0257 79.4618 79.9784 79.4323 79.938L84.6299 73.7053C84.0689 73.3174 83.4822 73.0739 82.8699 72.9748C82.2591 72.8927 81.6693 72.9465 81.1005 73.136C80.5333 73.3427 80.0555 73.6789 79.667 74.1447C79.2708 74.6199 79.0191 75.1679 78.9119 75.7889C78.797 76.4191 78.8655 76.9811 79.1173 77.4746L78.2059 78.1129C77.9851 77.6768 77.8631 77.1886 77.8397 76.6484C77.8163 76.1082 77.9002 75.5626 78.0913 75.0114C78.2839 74.4774 78.5784 73.9728 78.9746 73.4976ZM85.3387 74.2476L80.8519 79.6279C81.4145 80.0328 82.0012 80.2763 82.612 80.3584C83.215 80.4498 83.7954 80.3883 84.3533 80.1739C84.9128 79.9766 85.3906 79.6403 85.7868 79.1652C86.1831 78.6901 86.4278 78.1599 86.521 77.5746C86.6235 76.9971 86.5744 76.4119 86.3739 75.819C86.1749 75.2432 85.8298 74.7194 85.3387 74.2476Z" fill="#CD4841"/>
  <path d="M72.4545 79.7937C73.0821 79.3164 73.7719 79.0508 74.5241 78.9969C75.2666 78.9504 75.9665 79.0582 76.6239 79.3202L73.0827 74.6751L74.0676 73.9261L82.1649 84.5476L81.2815 85.2195L80.1672 83.758C80.2283 84.4583 80.1181 85.1442 79.8366 85.8154C79.5626 86.4964 79.1407 87.0535 78.571 87.4867C78.0496 87.8833 77.4871 88.1359 76.8834 88.2444C76.2871 88.3627 75.6899 88.3596 75.0918 88.2354C74.4937 88.1111 73.9275 87.8787 73.3934 87.5382C72.8569 87.2147 72.3974 86.8021 72.015 86.3004C71.4781 85.5962 71.1265 84.8348 70.9602 84.0164C70.7916 83.215 70.8271 82.4412 71.0667 81.695C71.3063 80.9489 71.7689 80.3151 72.4545 79.7937ZM73.3916 80.4527C72.9764 80.7684 72.6671 81.1332 72.4639 81.5468C72.268 81.9702 72.1645 82.4147 72.1534 82.8803C72.1326 83.3533 72.1955 83.816 72.3421 84.2684C72.4961 84.7305 72.7202 85.1545 73.0143 85.5404C73.3232 85.9455 73.6898 86.2764 74.1141 86.5328C74.5288 86.7966 74.9731 86.9692 75.4471 87.0507C75.9211 87.1322 76.3896 87.1264 76.8525 87.0334C77.3155 86.9404 77.7449 86.7433 78.1408 86.4423C78.3919 86.2513 78.6158 86.0048 78.8126 85.7027C79.0094 85.4006 79.1635 85.0625 79.2748 84.6882C79.3838 84.331 79.4358 83.979 79.4308 83.6323C79.4257 83.2856 79.3469 82.9721 79.1943 82.6919L77.4292 80.3766C77.0026 80.1371 76.5487 79.9718 76.0673 79.8807C75.5933 79.7992 75.1212 79.8001 74.6509 79.8835C74.1782 79.9839 73.7585 80.1736 73.3916 80.4527Z" fill="#CD4841"/>
  <path d="M65.3188 84.1096C65.9374 83.829 66.5646 83.6843 67.2003 83.6757C67.8411 83.6782 68.4477 83.796 69.0201 84.0292C69.5975 84.2735 70.1197 84.6161 70.5867 85.057C71.0426 85.5029 71.4111 86.0351 71.6923 86.6535C72.0588 87.4596 72.2129 88.2822 72.1545 89.1212C72.0852 89.9652 71.815 90.7338 71.3439 91.427C70.8778 92.1312 70.2305 92.6712 69.4019 93.047C68.5513 93.4328 67.7182 93.5643 66.9027 93.4413C66.0762 93.3233 65.3275 93.0102 64.6567 92.5019C63.9909 92.0046 63.4772 91.3585 63.1158 90.5633C63.0756 90.475 63.0354 90.3867 62.9953 90.2983C62.9601 90.221 62.938 90.1578 62.929 90.1086L70.3199 86.7564C69.9835 86.1631 69.5613 85.6886 69.0531 85.333C68.5389 84.9934 67.9846 84.7853 67.3901 84.7086C66.7895 84.648 66.213 84.7429 65.6606 84.9935C65.0972 85.249 64.6322 85.6331 64.2656 86.1457C63.8879 86.6633 63.7051 87.1991 63.7171 87.7531L62.6189 87.9315C62.6099 87.4427 62.7124 86.95 62.9263 86.4534C63.1403 85.9567 63.4532 85.5018 63.865 85.0886C64.2707 84.6914 64.7553 84.3651 65.3188 84.1096ZM70.7221 87.5531L64.342 90.4467C64.6724 91.0562 65.0946 91.5307 65.6088 91.8702C66.1119 92.2148 66.6613 92.4119 67.2568 92.4615C67.8463 92.5271 68.4228 92.4321 68.9862 92.1766C69.5497 91.9211 70.0006 91.55 70.3391 91.0635C70.6826 90.588 70.8931 90.0397 70.9705 89.4185C71.0418 88.8134 70.959 88.1916 70.7221 87.5531Z" fill="#CD4841"/>
  <path d="M62.0586 85.9414L60.1484 90.3365C60.7971 90.2917 61.367 90.4509 61.8581 90.8139C62.3399 91.1915 62.6692 91.7769 62.846 92.5702C62.9647 93.103 62.9459 93.6043 62.7896 94.074C62.6333 94.5437 62.3578 94.9529 61.9632 95.3015C61.5568 95.6529 61.0457 95.897 60.43 96.0339L56.8952 96.8197L54.8292 87.5486L56.0371 87.2801L56.8366 90.8678L58.897 90.4097L60.7086 86.2416L62.0586 85.9414ZM59.387 91.2701L57.0424 91.7913L57.8893 95.5921L60.0208 95.1182C60.6366 94.9813 61.0885 94.6945 61.3764 94.2577C61.667 93.8327 61.7529 93.3538 61.6342 92.8209C61.5128 92.2763 61.2619 91.8474 60.8814 91.5343C60.4891 91.2239 59.991 91.1358 59.387 91.2701Z" fill="#CD4841"/>
  <path d="M50.1793 87.9639L49.8131 97.4371L44.1582 97.219L44.2011 96.1099L48.6195 96.2803L48.9429 87.9162L50.1793 87.9639Z" fill="#CD4841"/>
  <path d="M44.6477 90.6633C44.5206 91.244 44.2458 91.7055 43.8232 92.0478C43.398 92.402 42.8704 92.6282 42.2404 92.7266C41.5959 92.8342 40.8885 92.804 40.1181 92.6358C39.6678 92.5375 39.2074 92.3997 38.7371 92.2225C38.2667 92.0453 37.8575 91.8442 37.5093 91.6192L37.3382 92.4013C37.167 93.1835 37.262 93.8561 37.623 94.4192C37.9841 94.9822 38.5735 95.353 39.3913 95.5316C39.8891 95.6402 40.4017 95.6528 40.9291 95.5693C41.442 95.495 41.9982 95.3371 42.5974 95.0954L42.8729 96.0496C42.1777 96.3324 41.5177 96.5111 40.8929 96.5858C40.2655 96.6723 39.6496 96.6496 39.0451 96.5176C37.9074 96.2692 37.0779 95.7467 36.5569 94.95C36.0358 94.1533 35.9011 93.1803 36.1526 92.0308L37.0901 87.7468C37.1264 87.5809 37.1181 87.4487 37.0651 87.3503C37.0096 87.2636 36.9061 87.1976 36.7546 87.1521L36.9647 86.1922C37.0976 86.2088 37.2128 86.2216 37.3102 86.2304C37.4076 86.2392 37.4787 86.2548 37.5235 86.277C37.8172 86.3535 38.0217 86.4975 38.1369 86.7089C38.252 86.9203 38.2935 87.128 38.2613 87.332L38.1312 88.0114C38.6627 87.5687 39.2927 87.2716 40.0213 87.1203C40.7472 86.9808 41.4539 86.9861 42.1413 87.1361C42.7339 87.2655 43.2459 87.5077 43.6773 87.8626C44.0944 88.2268 44.3925 88.652 44.5717 89.1381C44.7365 89.6335 44.7618 90.1419 44.6477 90.6633ZM38.599 88.5977C38.4323 88.7352 38.2965 88.8732 38.1917 89.0117C38.0869 89.1502 38.0215 89.2788 37.9956 89.3973L37.6999 90.7482C38.0692 90.9902 38.464 91.2006 38.8843 91.3793C39.2928 91.5554 39.7164 91.6913 40.1549 91.787C41.02 91.9759 41.7569 91.9568 42.3654 91.7295C42.974 91.5023 43.3431 91.0924 43.4727 90.4999C43.5479 90.1563 43.5304 89.811 43.42 89.464C43.3071 89.129 43.1008 88.8232 42.8012 88.5467C42.499 88.282 42.1168 88.0993 41.6545 87.9984C41.0738 87.8716 40.5099 87.8664 39.9629 87.9829C39.404 88.0968 38.9493 88.3017 38.599 88.5977Z" fill="#CD4841"/>
  <path d="M37.7729 86.5998L37.3022 87.6251C37.0044 87.4887 36.7043 87.4446 36.4018 87.4929C36.0943 87.5521 35.7637 87.7343 35.4101 88.0393C35.0455 88.3393 34.6536 88.8003 34.2346 89.4222C33.8104 90.0552 33.3414 90.8878 32.8275 91.92L31.6273 94.2723L26.0356 91.7111L29.9913 83.0955L31.1162 83.6108L27.6237 91.2176L31.0979 92.8089L31.8143 91.3358C32.405 90.1654 32.9568 89.2106 33.4697 88.4715C33.9775 87.7434 34.4701 87.2085 34.9474 86.8667C35.4136 86.5198 35.8798 86.3331 36.3459 86.3064C36.812 86.2797 37.2877 86.3775 37.7729 86.5998Z" fill="#CD4841"/>
  <path d="M26.0488 80.2039C26.5925 80.6112 27.0209 81.0913 27.3339 81.6441C27.6397 82.2066 27.8277 82.7946 27.898 83.4081C27.9611 84.0313 27.9112 84.6532 27.7485 85.274C27.576 85.8875 27.2858 86.4659 26.8779 87.0091C26.3462 87.7173 25.698 88.2472 24.9333 88.599C24.1588 88.9434 23.3541 89.0757 22.5191 88.9958C21.6767 88.9256 20.8915 88.6178 20.1633 88.0723C19.4157 87.5123 18.9 86.8456 18.6161 86.0721C18.3225 85.2913 18.2377 84.4851 18.3616 83.6533C18.4782 82.8313 18.7988 82.0711 19.3232 81.3726C19.3815 81.295 19.4398 81.2174 19.498 81.1398C19.549 81.0719 19.5939 81.0222 19.6328 80.9907L26.128 85.8563C26.4874 85.2767 26.7011 84.6789 26.7692 84.063C26.8202 83.4495 26.7366 82.8639 26.5182 82.3062C26.2828 81.751 25.9224 81.2915 25.4369 80.9279C24.9418 80.5569 24.3811 80.3339 23.7548 80.2589C23.1188 80.1765 22.5605 80.2736 22.0798 80.5501L21.3954 79.6737C21.8202 79.4311 22.3021 79.2843 22.841 79.2333C23.3799 79.1823 23.9297 79.238 24.4904 79.4004C25.0342 79.5652 25.5536 79.833 26.0488 80.2039ZM25.6218 86.5911L20.0149 82.3909C19.6386 82.973 19.4248 83.5707 19.3738 84.1842C19.313 84.7904 19.4039 85.3663 19.6466 85.9119C19.8723 86.4599 20.2327 86.9193 20.7278 87.2902C21.223 87.6611 21.7655 87.8781 22.3554 87.941C22.938 88.0137 23.5206 87.9348 24.1032 87.7043C24.6688 87.4763 25.175 87.1052 25.6218 86.5911Z" fill="#CD4841"/>
  <path d="M19.4467 74.0503C19.9561 74.6522 20.257 75.3269 20.3494 76.0745C20.434 76.8129 20.3621 77.5166 20.1337 78.1857L24.5966 74.4174L25.396 75.3619L15.1911 83.9784L14.474 83.1312L15.8783 81.9455C15.1811 82.0419 14.4898 81.9668 13.8042 81.7201C13.1094 81.4812 12.5307 81.0886 12.0684 80.5423C11.6452 80.0423 11.3638 79.4939 11.2244 78.8972C11.0756 78.3084 11.048 77.7125 11.1416 77.1095C11.2352 76.5065 11.4386 75.93 11.7517 75.3798C12.0477 74.8283 12.4367 74.349 12.9186 73.942C13.5952 73.3707 14.3384 72.9813 15.1482 72.7739C15.9409 72.565 16.7164 72.5612 17.4747 72.7624C18.233 72.9636 18.8903 73.3929 19.4467 74.0503ZM18.8359 75.0186C18.4989 74.6204 18.1184 74.3305 17.6944 74.1487C17.2611 73.9747 16.8114 73.894 16.3452 73.9066C15.8712 73.9099 15.4118 73.9961 14.967 74.1653C14.5129 74.3423 14.1005 74.5873 13.7297 74.9004C13.3405 75.2291 13.0285 75.6116 12.7938 76.0479C12.5513 76.4749 12.4015 76.9269 12.3443 77.4039C12.2871 77.8808 12.3169 78.3479 12.4336 78.805C12.5503 79.2621 12.7693 79.6805 13.0906 80.0602C13.2944 80.3009 13.5523 80.5118 13.8645 80.6928C14.1766 80.8738 14.5226 81.0103 14.9024 81.1024C15.2652 81.193 15.6198 81.227 15.9662 81.2044C16.3126 81.1818 16.622 81.0873 16.8943 80.9209L19.1188 79.0426C19.3364 78.6049 19.4784 78.1437 19.5448 77.6589C19.602 77.1819 19.5769 76.7109 19.4695 76.246C19.3449 75.7796 19.1337 75.3705 18.8359 75.0186Z" fill="#CD4841"/>
  <path d="M14.7683 67.1745C15.0812 67.7775 15.2587 68.3959 15.3006 69.0299C15.3319 69.6694 15.246 70.2808 15.0429 70.864C14.8292 71.4528 14.5142 71.9915 14.0981 72.4801C13.6764 72.958 13.1639 73.3531 12.5607 73.6655C11.7743 74.0726 10.9603 74.2686 10.1188 74.2535C9.27164 74.2277 8.48934 73.9975 7.77184 73.563C7.04357 73.1341 6.46989 72.5159 6.05081 71.7083C5.62054 70.8792 5.44545 70.0547 5.52554 69.2346C5.60003 68.4037 5.87365 67.6405 6.34638 66.945C6.80835 66.255 7.42714 65.7092 8.20277 65.3076C8.28896 65.263 8.37514 65.2184 8.46132 65.1738C8.53673 65.1347 8.59877 65.1095 8.64745 65.0979L12.3857 72.3012C12.961 71.935 13.4131 71.4893 13.7418 70.9639C14.0541 70.4334 14.233 69.8695 14.2784 69.2723C14.3074 68.6698 14.1823 68.0994 13.9029 67.5611C13.6179 67.0119 13.2096 66.5676 12.6781 66.2281C12.141 65.8778 11.5959 65.7229 11.0428 65.7633L10.8069 64.6766C11.2949 64.6425 11.7927 64.7194 12.3002 64.9074C12.8078 65.0954 13.2789 65.3843 13.7135 65.774C14.1317 66.1585 14.4833 66.6254 14.7683 67.1745ZM11.6107 72.7435L8.38371 66.5254C7.79202 66.8863 7.33999 67.3321 7.02764 67.8626C6.7097 68.3824 6.54159 68.9407 6.52333 69.5376C6.4887 70.1293 6.61387 70.6996 6.89885 71.2488C7.18383 71.7979 7.57832 72.2289 8.08233 72.5417C8.57556 72.86 9.13461 73.0419 9.75948 73.0872C10.368 73.1273 10.985 73.0127 11.6107 72.7435Z" fill="#CD4841"/>
  <path d="M12.7446 64.0086L8.25842 62.3162C8.33555 62.9618 8.205 63.5386 7.86679 64.0467C7.51366 64.5463 6.94523 64.9037 6.1615 65.119C5.63512 65.2637 5.1334 65.2694 4.65636 65.1363C4.17931 65.0032 3.75677 64.7481 3.38873 64.3712C3.01747 63.9826 2.7481 63.4842 2.58061 62.876L1.61918 59.3849L10.7783 56.8685L11.1068 58.0615L7.56247 59.0352L8.1229 61.0702L12.3774 62.6753L12.7446 64.0086ZM7.2878 61.6016L6.65007 59.2859L2.8952 60.3175L3.47496 62.4227C3.64244 63.0309 3.95157 63.468 4.40234 63.7342C4.84141 64.0035 5.32414 64.0659 5.85052 63.9213C6.3886 63.7735 6.80454 63.5019 7.09833 63.1067C7.38891 62.6998 7.45206 62.1981 7.2878 61.6016Z" fill="#CD4841"/>
  <path d="M10.1301 52.4183L0.650953 52.5645L0.563477 46.9062L1.67332 46.8891L1.74167 51.3102L10.111 51.1811L10.1301 52.4183Z" fill="#CD4841"/>
  <path d="M7.12068 46.961C6.53437 46.8632 6.05984 46.6119 5.69707 46.207C5.32234 45.8001 5.07033 45.2845 4.94104 44.6603C4.80178 44.0222 4.79718 43.3142 4.92724 42.5365C5.00328 42.0819 5.11822 41.6153 5.27205 41.1367C5.42588 40.6581 5.60661 40.2394 5.81423 39.8805L5.02451 39.7487C4.23479 39.6169 3.56758 39.7454 3.02289 40.1342C2.4782 40.523 2.13682 41.1301 1.99875 41.9557C1.91471 42.4582 1.92739 42.9707 2.0368 43.4932C2.13624 44.0018 2.32142 44.5492 2.59234 45.1355L1.65279 45.4584C1.33605 44.7783 1.12499 44.1282 1.01963 43.508C0.902301 42.8858 0.894663 42.2696 0.996713 41.6594C1.18881 40.5108 1.66993 39.6564 2.44009 39.0961C3.21025 38.5359 4.17565 38.3526 5.3363 38.5463L9.66181 39.268C9.82933 39.2959 9.96097 39.281 10.0567 39.2232C10.1405 39.1634 10.2014 39.0567 10.2394 38.9031L11.2086 39.0648C11.1986 39.1985 11.1915 39.3141 11.1875 39.4118C11.1834 39.5095 11.1714 39.5813 11.1514 39.6272C11.0895 39.9243 10.9557 40.1357 10.7502 40.2613C10.5447 40.3869 10.3393 40.4387 10.1339 40.4167L9.44883 40.3209C9.91724 40.8295 10.245 41.4437 10.4321 42.1637C10.6072 42.8816 10.6367 43.5875 10.5206 44.2815C10.4206 44.8797 10.2039 45.4032 9.8706 45.8518C9.52732 46.2865 9.11729 46.6054 8.64051 46.8088C8.15377 46.9981 7.64716 47.0489 7.12068 46.961ZM8.88612 40.8173C8.74062 40.6577 8.59609 40.5291 8.45255 40.4313C8.30901 40.3336 8.17741 40.2748 8.05775 40.2548L6.69369 40.0272C6.4701 40.408 6.27941 40.8128 6.12162 41.2416C5.96583 41.6583 5.85091 42.088 5.77687 42.5307C5.6308 43.4041 5.68624 44.139 5.94319 44.7353C6.20015 45.3316 6.62776 45.6797 7.22603 45.7795C7.57303 45.8374 7.91709 45.8026 8.2582 45.675C8.58736 45.5454 8.88265 45.3241 9.14409 45.0111C9.39357 44.6961 9.55733 44.3052 9.63537 43.8386C9.73342 43.2523 9.71079 42.689 9.56749 42.1485C9.42619 41.5961 9.19907 41.1524 8.88612 40.8173Z" fill="#CD4841"/>
  <path d="M10.7466 39.6059L9.69777 39.1903C9.81869 38.8859 9.84722 38.584 9.78338 38.2847C9.70826 37.9809 9.50917 37.6606 9.18611 37.3238C8.86753 36.9757 8.38666 36.609 7.74351 36.2236C7.08908 35.8338 6.2329 35.4097 5.17496 34.9513L2.76239 33.8778L5.03291 28.1619L13.8463 31.6545L13.3896 32.8045L5.60802 29.7208L4.19734 33.272L5.70638 33.9092C6.90645 34.437 7.88901 34.9373 8.65405 35.4101C9.40782 35.8784 9.96779 36.3417 10.334 36.8C10.7046 37.247 10.9153 37.7024 10.9661 38.1662C11.0168 38.6299 10.9436 39.1098 10.7466 39.6059Z" fill="#CD4841"/>
  <path d="M16.6571 27.7797C16.2755 28.3417 15.8156 28.7921 15.2776 29.131C14.7295 29.463 14.1505 29.6788 13.5403 29.7783C12.9202 29.871 12.2959 29.851 11.6675 29.7183C11.0459 29.5756 10.4539 29.3137 9.89145 28.9327C9.15829 28.4361 8.59784 27.8146 8.2101 27.0684C7.82917 26.3122 7.65896 25.5155 7.69948 24.6785C7.72996 23.8346 8.00076 23.0364 8.51187 22.2837C9.03661 21.5109 9.67901 20.9644 10.4391 20.6441C11.2059 20.3138 12.0081 20.1905 12.8456 20.2744C13.6731 20.3514 14.4484 20.6349 15.1715 21.1248C15.2519 21.1792 15.3322 21.2336 15.4126 21.2881C15.4829 21.3357 15.5347 21.3781 15.568 21.4154L11.0089 28.1293C11.6054 28.4601 12.2132 28.6447 12.8323 28.6832C13.4481 28.7048 14.0297 28.5933 14.5771 28.3487C15.1212 28.0872 15.5636 27.7056 15.9044 27.2038C16.2519 26.692 16.4485 26.1219 16.494 25.4934C16.5464 24.8548 16.423 24.3023 16.1239 23.8359L16.968 23.1111C17.2306 23.5234 17.4001 23.9972 17.4765 24.5325C17.5529 25.0678 17.5231 25.619 17.3872 26.1863C17.248 26.7368 17.0046 27.2679 16.6571 27.7797ZM10.2503 27.6593L14.1859 21.8637C13.5861 21.516 12.9784 21.3314 12.3625 21.3098C11.7535 21.2781 11.1819 21.3964 10.6478 21.6647C10.1105 21.9161 9.66808 22.2977 9.32053 22.8095C8.97297 23.3213 8.78162 23.8731 8.74648 24.4646C8.70129 25.0494 8.80764 25.627 9.06555 26.1973C9.32022 26.7508 9.71513 27.2381 10.2503 27.6593Z" fill="#CD4841"/>
  <path d="M22.5041 20.8666C21.9264 21.4032 21.2659 21.7352 20.5226 21.8626C19.7883 21.9817 19.0811 21.9432 18.4012 21.7469L22.3811 26.0221L21.4745 26.8641L12.3739 17.0885L13.1872 16.3331L14.4394 17.6783C14.31 16.9873 14.3523 16.294 14.5666 15.5983C14.7726 14.8938 15.1378 14.298 15.6622 13.8109C16.1422 13.3652 16.6772 13.0586 17.2673 12.8914C17.8492 12.7152 18.4438 12.6596 19.0512 12.7246C19.6586 12.7896 20.2449 12.9653 20.8099 13.2518C21.3755 13.5211 21.8732 13.8866 22.3031 14.3483C22.9065 14.9965 23.3311 15.7196 23.5769 16.5178C23.8233 17.2988 23.8639 18.0723 23.6987 18.8384C23.5334 19.6044 23.1352 20.2805 22.5041 20.8666ZM21.5069 20.3028C21.8891 19.9478 22.1611 19.5545 22.3227 19.1229C22.4762 18.6824 22.5356 18.2299 22.5009 17.7654C22.4752 17.2927 22.3671 16.8384 22.1769 16.4025C21.9783 15.9578 21.7137 15.5579 21.3831 15.2027C21.0359 14.8298 20.6386 14.5366 20.1912 14.323C19.7527 14.1012 19.2935 13.973 18.8138 13.9384C18.3341 13.9038 17.8685 13.9555 17.4169 14.0935C16.9652 14.2315 16.5572 14.4697 16.1928 14.8082C15.9617 15.0228 15.763 15.2901 15.5968 15.61C15.4306 15.93 15.3104 16.2816 15.2364 16.6649C15.1629 17.0311 15.1457 17.3865 15.1847 17.7311C15.2237 18.0756 15.3329 18.3798 15.5123 18.6437L17.4961 20.7747C17.9441 20.9711 18.4121 21.091 18.9001 21.1345C19.3798 21.1691 19.8496 21.1218 20.3095 20.9927C20.77 20.8465 21.1691 20.6165 21.5069 20.3028Z" fill="#CD4841"/>
  <path d="M29.1771 15.8458C28.5895 16.1867 27.9798 16.3931 27.3481 16.4651C26.7103 16.5266 26.0949 16.4699 25.502 16.295C24.903 16.1095 24.3492 15.8208 23.8405 15.4287C23.3424 15.0305 22.9225 14.5378 22.581 13.9506C22.1358 13.185 21.9004 12.382 21.8746 11.5414C21.8594 10.6948 22.0515 9.90309 22.4511 9.16641C22.8445 8.41924 23.4347 7.81738 24.2217 7.36081C25.0296 6.89207 25.8455 6.6782 26.6692 6.71922C27.5034 6.75414 28.2797 6.991 28.9979 7.42979C29.7101 7.85809 30.2857 8.44976 30.7248 9.20479C30.7736 9.28869 30.8224 9.37258 30.8711 9.45647C30.9138 9.52988 30.9421 9.5906 30.956 9.63863L23.9363 13.7112C24.3303 14.268 24.7979 14.698 25.339 15.0011C25.8845 15.2877 26.4569 15.4394 27.0562 15.4564C27.6598 15.4568 28.224 15.3048 28.7486 15.0004C29.2837 14.69 29.7081 14.2615 30.0217 13.7149C30.3459 13.1622 30.4743 12.6108 30.407 12.0608L31.482 11.7738C31.5398 12.2592 31.487 12.7596 31.3237 13.2751C31.1603 13.7906 30.8944 14.2744 30.5259 14.7266C30.1618 15.1623 29.7122 15.5353 29.1771 15.8458ZM23.4566 12.9587L29.5162 9.44314C29.1266 8.86976 28.6591 8.43979 28.1136 8.15323C27.5785 7.86058 27.0122 7.7193 26.4147 7.72939C25.8215 7.72291 25.2574 7.87489 24.7222 8.18536C24.1871 8.49582 23.7754 8.90998 23.4872 9.42782C23.1928 9.93517 23.0382 10.5017 23.0232 11.1275C23.0126 11.7367 23.1571 12.3471 23.4566 12.9587Z" fill="#CD4841"/>
  <path d="M32.0068 13.7698L33.4577 9.20292C32.8169 9.31371 32.2337 9.2136 31.7081 8.90259C31.1901 8.57624 30.8027 8.02753 30.5457 7.25646C30.3731 6.73858 30.3405 6.23805 30.448 5.75487C30.5555 5.2717 30.7877 4.83655 31.1445 4.44942C31.5129 4.05847 31.9964 3.76348 32.595 3.56445L36.0311 2.42194L39.0344 11.4331L37.8603 11.8235L36.6981 8.33642L34.6951 9.00241L33.3191 13.3334L32.0068 13.7698ZM34.1197 8.19661L36.3989 7.43876L35.1676 3.74453L33.0956 4.43349C32.497 4.63252 32.0769 4.96399 31.8351 5.42789C31.5895 5.88029 31.553 6.36543 31.7256 6.88331C31.902 7.4127 32.1955 7.81369 32.606 8.08628C33.028 8.35503 33.5326 8.39181 34.1197 8.19661Z" fill="#CD4841"/>
  <path d="M43.5806 10.5061L42.9586 1.04623L48.6055 0.675781L48.6783 1.78336L44.2661 2.07282L44.8153 10.4251L43.5806 10.5061Z" fill="#CD4841"/>
  <path d="M48.9274 7.21787C48.996 6.62743 49.2235 6.14093 49.6099 5.75837C49.9976 5.36377 50.5 5.08628 51.1171 4.92591C51.7476 4.75489 52.4544 4.71487 53.2377 4.80584C53.6956 4.85902 54.1673 4.95046 54.653 5.08014C55.1386 5.20982 55.5658 5.36935 55.9347 5.55874L56.027 4.76345C56.1194 3.96816 55.9579 3.30825 55.5425 2.78372C55.1272 2.25919 54.5038 1.94865 53.6723 1.85207C53.1662 1.79329 52.655 1.83161 52.1385 1.96702C51.6356 2.09179 51.098 2.30413 50.5258 2.60404L50.1566 1.68187C50.8201 1.3315 51.459 1.08819 52.0733 0.951918C52.6889 0.803599 53.304 0.76513 53.9185 0.836508C55.0753 0.970867 55.9526 1.4086 56.5504 2.14972C57.1482 2.89084 57.3793 3.84582 57.2435 5.01465L56.7376 9.37067C56.718 9.53937 56.7394 9.67009 56.8019 9.76284C56.8658 9.84354 56.9754 9.89901 57.1307 9.92925L57.0173 10.9053C56.8833 10.9019 56.7675 10.9007 56.6697 10.9016C56.5719 10.9024 56.4996 10.894 56.4528 10.8764C56.1529 10.8293 55.9352 10.7063 55.7995 10.5074C55.6639 10.3084 55.6019 10.1059 55.6137 9.8996L55.6754 9.21066C55.1906 9.70392 54.5934 10.062 53.8836 10.2849C53.1752 10.4957 52.4716 10.5605 51.7727 10.4793C51.1702 10.4093 50.6366 10.2191 50.172 9.90871C49.7208 9.58763 49.3818 9.1941 49.155 8.72811C48.9417 8.25148 48.8658 7.74807 48.9274 7.21787ZM55.1515 8.67354C55.3037 8.52024 55.425 8.36946 55.5155 8.22121C55.606 8.07296 55.6582 7.93858 55.6722 7.81809L55.8318 6.4444C55.4403 6.24017 55.0265 6.06999 54.5905 5.93385C54.1665 5.79912 53.7315 5.70586 53.2857 5.65408C52.4061 5.55191 51.6748 5.64406 51.092 5.93052C50.5092 6.21699 50.1828 6.66146 50.1128 7.26396C50.0722 7.6134 50.1241 7.95527 50.2684 8.28956C50.4142 8.6118 50.6499 8.89564 50.9756 9.14107C51.3026 9.37446 51.7011 9.51844 52.171 9.57302C52.7615 9.6416 53.3231 9.59081 53.8557 9.42064C54.4005 9.25188 54.8324 9.00284 55.1515 8.67354Z" fill="#CD4841"/>
  <path d="M56.0727 10.5207L56.4335 9.45172C56.7439 9.55623 57.047 9.56867 57.3427 9.48905C57.6423 9.39792 57.952 9.18219 58.2717 8.84183C58.6029 8.50535 58.9443 8.00589 59.2959 7.34347C59.6514 6.66956 60.0306 5.79244 60.4336 4.71213L61.3808 2.24704L67.2096 4.20954L64.1781 13.1921L63.0054 12.7972L65.682 4.86641L62.0605 3.64711L61.5024 5.18718C61.0374 6.41304 60.5887 7.42034 60.156 8.20907C59.7273 8.98632 59.2935 9.56986 58.8547 9.95971C58.4273 10.3534 57.9833 10.5879 57.5226 10.6632C57.0619 10.7385 56.5786 10.691 56.0727 10.5207Z" fill="#CD4841"/>
  <path d="M68.5498 15.7079C67.9686 15.3562 67.4949 14.9208 67.1288 14.4016C66.769 13.872 66.5239 13.3054 66.3933 12.7018C66.2691 12.0879 66.2573 11.464 66.358 10.8301C66.469 10.2026 66.7006 9.59836 67.0529 9.0175C67.5121 8.2603 68.1048 7.66896 68.831 7.24346C69.5676 6.82424 70.3553 6.61317 71.1942 6.61024C72.0393 6.59695 72.851 6.82578 73.6295 7.29675C74.4287 7.78027 75.0077 8.39288 75.3666 9.1346C75.7358 9.88259 75.8998 10.6766 75.8586 11.5165C75.8237 12.3461 75.5798 13.1343 75.1269 13.8811C75.0766 13.9641 75.0262 14.0471 74.9759 14.13C74.9319 14.2026 74.8921 14.2566 74.8566 14.2918L67.9129 10.0908C67.6126 10.703 67.4589 11.319 67.452 11.9387C67.4618 12.5542 67.6028 13.1287 67.8752 13.6621C68.1642 14.1915 68.5682 14.6131 69.0872 14.9271C69.6165 15.2474 70.1965 15.4139 70.8271 15.4268C71.4681 15.446 72.0141 15.2943 72.4651 14.9717L73.2327 15.7763C72.8339 16.0596 72.3689 16.2533 71.8377 16.3572C71.3064 16.4612 70.7538 16.46 70.1798 16.3538C69.6225 16.2434 69.0792 16.0282 68.5498 15.7079ZM68.3441 9.30957L74.3381 12.936C74.6551 12.3196 74.8088 11.7037 74.799 11.0881C74.7996 10.4788 74.6523 9.91469 74.3569 9.39574C74.0783 8.87269 73.6743 8.45103 73.145 8.13078C72.6156 7.81053 72.0544 7.64819 71.4612 7.64376C70.8743 7.62896 70.3023 7.76499 69.7453 8.05183C69.205 8.33458 68.7379 8.75383 68.3441 9.30957Z" fill="#CD4841"/>
  <path d="M75.7978 21.1925C75.2319 20.6435 74.8663 20.0015 74.7011 19.2665C74.5447 18.5401 74.5473 17.8327 74.7089 17.1445L70.6367 21.3318L69.7486 20.4702L79.0602 10.8953L79.8569 11.6682L78.5756 12.9858C79.2599 12.8215 79.9553 12.8285 80.6617 13.0069C81.3767 13.1765 81.991 13.5106 82.5047 14.0089C82.9748 14.4651 83.3085 14.9832 83.5058 15.5634C83.7115 16.1348 83.7974 16.7251 83.7633 17.3344C83.7292 17.9436 83.5834 18.5373 83.3257 19.1155C83.0851 19.6934 82.745 20.2085 82.3052 20.6607C81.6878 21.2955 80.9863 21.7559 80.2008 22.0416C79.4324 22.3272 78.661 22.407 77.8866 22.281C77.1123 22.1551 76.416 21.7923 75.7978 21.1925ZM76.3109 20.1691C76.6852 20.5323 77.0923 20.7836 77.5321 20.923C77.9804 21.0536 78.4358 21.0899 78.8985 21.0317C79.3699 20.982 79.8187 20.8512 80.2448 20.6392C80.6793 20.4185 81.0658 20.1343 81.4041 19.7864C81.7593 19.4212 82.0323 19.0099 82.2231 18.5528C82.4225 18.104 82.5274 17.6395 82.5376 17.1593C82.5478 16.679 82.4724 16.2171 82.3114 15.7736C82.1505 15.3301 81.8915 14.9352 81.5345 14.5889C81.3082 14.3693 81.0308 14.1847 80.7024 14.0351C80.3741 13.8856 80.0164 13.7836 79.6293 13.7292C79.2594 13.6746 78.9032 13.6755 78.5607 13.7319C78.2181 13.7883 77.9195 13.9127 77.6648 14.105L75.635 16.1922C75.4614 16.6491 75.3653 17.1221 75.3466 17.611C75.3364 18.0913 75.4076 18.5575 75.5601 19.0097C75.7297 19.4616 75.98 19.8481 76.3109 20.1691Z" fill="#CD4841"/>
  <path d="M81.1702 27.5807C80.7989 27.0118 80.5609 26.4141 80.4562 25.7874C80.3616 25.1542 80.3864 24.5373 80.5305 23.9369C80.6847 23.3298 80.9446 22.7625 81.3102 22.235C81.6824 21.7177 82.1531 21.2737 82.7224 20.903C83.4645 20.4199 84.255 20.144 85.0939 20.0755C85.9395 20.0172 86.7408 20.1686 87.498 20.5297C88.2653 20.8841 88.8975 21.4423 89.3948 22.2043C89.9053 22.9865 90.1614 23.7896 90.1631 24.6135C90.1715 25.4477 89.975 26.2342 89.5737 26.9732C89.1825 27.7056 88.621 28.31 87.889 28.7866C87.8077 28.8395 87.7263 28.8925 87.645 28.9454C87.5738 28.9918 87.5146 29.0231 87.4673 29.0394L83.032 22.2431C82.4958 22.6645 82.0903 23.1529 81.8154 23.7083C81.5572 24.2672 81.4352 24.846 81.4493 25.4448C81.4803 26.0471 81.6615 26.6022 81.993 27.1102C82.3311 27.6283 82.7815 28.0298 83.3441 28.3149C83.9134 28.6101 84.4712 28.7102 85.0175 28.6151L85.3603 29.673C84.8781 29.7553 84.3751 29.7282 83.8513 29.5915C83.3276 29.4548 82.8301 29.2141 82.3589 28.8695C81.9046 28.5284 81.5083 28.0988 81.1702 27.5807ZM83.7593 21.7261L87.588 27.5929C88.141 27.175 88.5465 26.6866 88.8046 26.1277C89.0694 25.579 89.1812 25.0067 89.1401 24.4111C89.1158 23.8189 88.9346 23.2638 88.5965 22.7457C88.2584 22.2276 87.823 21.8379 87.2904 21.5767C86.768 21.3089 86.1936 21.1835 85.5673 21.2004C84.9578 21.2209 84.3551 21.3961 83.7593 21.7261Z" fill="#CD4841"/>
  <path d="M83.5075 30.5226L88.1429 31.7507C88.0005 31.1163 88.0717 30.5292 88.3565 29.9895C88.657 29.4567 89.1862 29.0434 89.944 28.7496C90.453 28.5523 90.9516 28.4956 91.4397 28.5796C91.9278 28.6636 92.3742 28.8744 92.7786 29.212C93.1875 29.5609 93.5062 30.0293 93.7347 30.6173L95.0462 33.9925L86.1899 37.4257L85.7417 36.2723L89.1689 34.9438L88.4044 32.9763L84.0084 31.8116L83.5075 30.5226ZM89.1812 32.363L90.0511 34.6018L93.6819 33.1943L92.891 31.159C92.6625 30.5711 92.3105 30.1676 91.835 29.9486C91.3708 29.7252 90.8842 29.7122 90.3752 29.9095C89.8549 30.1112 89.4687 30.4235 89.2166 30.8465C88.9689 31.2808 88.9571 31.7863 89.1812 32.363Z" fill="#CD4841"/>
</svg>