<svg xmlns="http://www.w3.org/2000/svg" width="155" height="57" viewBox="0 0 155 57" fill="none">
  <path d="M132.119 48.1999C132.119 47.8079 132.231 47.4719 132.455 47.1919C132.679 46.9039 132.987 46.6839 133.379 46.5319C133.779 46.3719 134.239 46.2919 134.759 46.2919C135.063 46.2919 135.379 46.3159 135.707 46.3639C136.035 46.4119 136.327 46.4839 136.583 46.5799V46.0519C136.583 45.5239 136.427 45.1039 136.115 44.7919C135.803 44.4799 135.371 44.3239 134.819 44.3239C134.483 44.3239 134.151 44.3879 133.823 44.5159C133.503 44.6359 133.167 44.8159 132.815 45.0559L132.503 44.4799C132.911 44.1999 133.311 43.9919 133.703 43.8559C134.095 43.7119 134.495 43.6399 134.903 43.6399C135.671 43.6399 136.279 43.8599 136.727 44.2999C137.175 44.7399 137.399 45.3479 137.399 46.1239V49.0159C137.399 49.1279 137.423 49.2119 137.471 49.2679C137.519 49.3159 137.595 49.3439 137.699 49.3519V49.9999C137.611 50.0079 137.535 50.0159 137.471 50.0239C137.407 50.0319 137.359 50.0319 137.327 50.0239C137.127 50.0159 136.975 49.9519 136.871 49.8319C136.767 49.7119 136.711 49.5839 136.703 49.4479L136.691 48.9919C136.411 49.3519 136.047 49.6319 135.599 49.8319C135.151 50.0239 134.695 50.1199 134.231 50.1199C133.831 50.1199 133.467 50.0359 133.139 49.8679C132.819 49.6919 132.567 49.4599 132.383 49.1719C132.207 48.8759 132.119 48.5519 132.119 48.1999ZM136.307 48.6799C136.395 48.5679 136.463 48.4599 136.511 48.3559C136.559 48.2519 136.583 48.1599 136.583 48.0799V47.1679C136.311 47.0639 136.027 46.9839 135.731 46.9279C135.443 46.8719 135.151 46.8439 134.855 46.8439C134.271 46.8439 133.799 46.9599 133.439 47.1919C133.079 47.4239 132.899 47.7399 132.899 48.1399C132.899 48.3719 132.959 48.5919 133.079 48.7999C133.199 48.9999 133.375 49.1679 133.607 49.3039C133.839 49.4319 134.111 49.4959 134.423 49.4959C134.815 49.4959 135.179 49.4199 135.515 49.2679C135.859 49.1159 136.123 48.9199 136.307 48.6799Z" fill="#4F081C"/>
  <path d="M130.653 51.452V50H125.661V43.748H126.477V49.28H129.717V43.748H130.533V49.28H131.385V51.452H130.653Z" fill="#4F081C"/>
  <path d="M118.536 50V43.76H119.352V48.896L123.156 43.748H123.888V50H123.072V44.948L119.328 50H118.536Z" fill="#4F081C"/>
  <path d="M111.54 50V43.748H112.356V46.436H115.932V43.748H116.748V50H115.932V47.168H112.356V50H111.54Z" fill="#4F081C"/>
  <path d="M101.64 50L103.98 46.784L101.868 43.748H102.792L104.676 46.448H105.492V43.748H106.332V46.448H107.172L109.02 43.748H109.956L107.832 46.784L110.196 50H109.248L107.172 47.168H106.332V50H105.492V47.168H104.676L102.588 50H101.64Z" fill="#4F081C"/>
  <path d="M97.6109 50.1199C97.1629 50.1199 96.7469 50.0359 96.3629 49.8679C95.9869 49.6919 95.6589 49.4559 95.3789 49.1599C95.1069 48.8559 94.8949 48.5119 94.7429 48.1279C94.5909 47.7359 94.5149 47.3239 94.5149 46.8919C94.5149 46.4439 94.5909 46.0279 94.7429 45.6439C94.8949 45.2519 95.1109 44.9079 95.3909 44.6119C95.6709 44.3079 95.9989 44.0719 96.3749 43.9039C96.7589 43.7279 97.1749 43.6399 97.6229 43.6399C98.0709 43.6399 98.4829 43.7279 98.8589 43.9039C99.2349 44.0719 99.5629 44.3079 99.8429 44.6119C100.123 44.9079 100.339 45.2519 100.491 45.6439C100.643 46.0279 100.719 46.4439 100.719 46.8919C100.719 47.3239 100.643 47.7359 100.491 48.1279C100.339 48.5119 100.123 48.8559 99.8429 49.1599C99.5709 49.4559 99.2429 49.6919 98.8589 49.8679C98.4829 50.0359 98.0669 50.1199 97.6109 50.1199ZM95.3429 46.9039C95.3429 47.3679 95.4429 47.7919 95.6429 48.1759C95.8509 48.5519 96.1269 48.8519 96.4709 49.0759C96.8149 49.2919 97.1949 49.3999 97.6109 49.3999C98.0269 49.3999 98.4069 49.2879 98.7509 49.0639C99.0949 48.8399 99.3709 48.5359 99.5789 48.1519C99.7869 47.7599 99.8909 47.3359 99.8909 46.8799C99.8909 46.4159 99.7869 45.9919 99.5789 45.6079C99.3709 45.2239 99.0949 44.9199 98.7509 44.6959C98.4069 44.4719 98.0269 44.3599 97.6109 44.3599C97.1949 44.3599 96.8149 44.4759 96.4709 44.7079C96.1349 44.9399 95.8629 45.2479 95.6549 45.6319C95.4469 46.0079 95.3429 46.4319 95.3429 46.9039Z" fill="#4F081C"/>
  <path d="M87.2899 51.452V49.268H87.3979C87.5819 49.268 87.7499 49.212 87.9019 49.1C88.0539 48.988 88.1899 48.792 88.3099 48.512C88.4299 48.232 88.5259 47.848 88.5979 47.36C88.6699 46.864 88.7179 46.24 88.7419 45.488L88.8019 43.748H92.8699V49.268H93.7099V51.452H92.9779V50H88.0099V51.452H87.2899ZM88.6339 49.268H92.0539V44.48H89.5339L89.4979 45.56C89.4739 46.304 89.4219 46.928 89.3419 47.432C89.2699 47.928 89.1739 48.324 89.0539 48.62C88.9419 48.908 88.8019 49.124 88.6339 49.268Z" fill="#4F081C"/>
  <path d="M82.166 52.616C82.03 52.616 81.89 52.592 81.746 52.544C81.61 52.504 81.47 52.444 81.326 52.364L81.626 51.788C81.714 51.836 81.794 51.876 81.866 51.908C81.946 51.94 82.03 51.956 82.118 51.956C82.326 51.956 82.522 51.852 82.706 51.644C82.89 51.436 83.066 51.132 83.234 50.732L83.546 49.952L80.762 43.748H81.626L83.918 49.16L86.03 43.748H86.846L83.87 50.984C83.71 51.36 83.542 51.668 83.366 51.908C83.19 52.148 83.002 52.324 82.802 52.436C82.602 52.556 82.39 52.616 82.166 52.616Z" fill="#4F081C"/>
  <path d="M74.02 41.48L76.804 45.188L79.576 41.48H80.524L77.26 45.8L80.428 50H79.48L76.804 46.412L74.116 50H73.156L76.324 45.8L73.06 41.48H74.02Z" fill="#4F081C"/>
  <path d="M146.809 10.16V35H143.785V10.16H136.801V9.80005H153.793V10.16H146.809Z" fill="#4F081C"/>
  <path d="M138.421 32.048H138.601C138.601 34.3161 136.981 35.432 135.181 35.432C130.285 35.432 129.889 28.772 125.929 28.772V35H122.905V9.80005H126.469C132.625 9.80005 136.153 13.868 136.153 19.304C136.153 24.308 133.093 28.1961 127.729 28.7001C129.961 29.4201 131.401 30.5001 132.517 31.6521C133.345 32.516 135.217 34.1 136.405 34.1C137.521 34.1 138.421 33.38 138.421 32.048ZM125.929 28.412H126.469C130.681 28.412 133.129 24.6681 133.129 19.304C133.129 13.976 130.681 10.16 126.469 10.16H125.929V28.412Z" fill="#4F081C"/>
  <path d="M110.095 9.08008L121.111 35.0001H118.087L116.323 30.8961H101.167L99.4387 35.0001H99.0787L110.095 9.08008ZM108.763 13.0401L101.311 30.5361H116.179L108.763 13.0401Z" fill="#4F081C"/>
  <path d="M76.5557 9.08008L87.5717 35.0001H84.5477L82.7837 30.8961H67.6277L65.8997 35.0001H65.5397L76.5557 9.08008ZM75.2237 13.0401L67.7717 30.5361H82.6397L75.2237 13.0401Z" fill="#4F081C"/>
  <path d="M57.8663 9.80005V34.64H64.8144V35H54.8423V9.80005H57.8663Z" fill="#4F081C"/>
  <path d="M52.8505 32.048H53.0305C53.0305 34.3161 51.4105 35.432 49.6105 35.432C44.7145 35.432 44.3185 28.772 40.3585 28.772V35H37.3345V9.80005H40.8985C47.0545 9.80005 50.5825 13.868 50.5825 19.304C50.5825 24.308 47.5225 28.1961 42.1585 28.7001C44.3905 29.4201 45.8305 30.5001 46.9465 31.6521C47.7745 32.516 49.6465 34.1 50.8345 34.1C51.9505 34.1 52.8505 33.38 52.8505 32.048ZM40.3585 28.412H40.8985C45.1105 28.412 47.5585 24.6681 47.5585 19.304C47.5585 13.976 45.1105 10.16 40.8985 10.16H40.3585V28.412Z" fill="#4F081C"/>
  <path d="M34.8261 10.16H27.8781V22.148H34.8261V22.508H27.8781V34.64H34.8261V35H24.8541V9.80005H34.8261V10.16Z" fill="#4F081C"/>
  <path d="M18.936 9.80005H21.96V35H18.936V10.8441L10.368 35H10.008L1.44002 10.8441V35H1.08002V9.80005H4.10402L11.52 30.752L18.936 9.80005Z" fill="#4F081C"/>
</svg>